<?xml version="1.0" encoding="UTF-8" standalone="no"?>
<svg xmlns="http://www.w3.org/2000/svg" xmlns:xlink="http://www.w3.org/1999/xlink" xmlns:serif="http://www.serif.com/" width="100%" height="100%" viewBox="0 0 1295 259" version="1.1" xml:space="preserve" style="fill-rule:evenodd;clip-rule:evenodd;stroke-linejoin:round;stroke-miterlimit:2;">
    <g transform="matrix(1,0,0,1,-397.959,-694.153)">
        <g transform="matrix(0.900521,0,0,1,397.959,694.153)">
            <rect id="didroom" x="0" y="0" width="1437" height="259" style="fill:none;"></rect>
            <clipPath id="_clip1">
                <rect id="didroom1" serif:id="didroom" x="0" y="0" width="1437" height="259"></rect>
            </clipPath>
            <g clip-path="url(#_clip1)">
                <g transform="matrix(1.11047,0,0,1,0,0)">
                    <g transform="matrix(1,0,0,1,4.16045,0)">
                        <rect x="300.872" y="0.543" width="3.188" height="258.226" style="fill:rgb(77,76,77);"></rect>
                    </g>
                    <g transform="matrix(1,0,0,1,-142.362,0)">
                        <path d="M888.656,64.124L855.172,64.124L855.172,195.664L888.656,195.664L888.656,126.256C890.474,109.969 904.24,97.361 920.941,97.361L920.941,64.124C909.201,64.124 898.205,67.184 888.656,72.599L888.656,64.124Z" style="fill:rgb(77,76,77);fill-rule:nonzero;"></path>
                    </g>
                    <g transform="matrix(1,0,0,1,-142.362,0)">
                        <path d="M998.029,162.345C980.046,162.345 965.495,147.794 965.495,129.853C965.495,111.87 980.046,97.319 998.029,97.319C1015.97,97.319 1030.52,111.87 1030.52,129.853C1030.52,147.794 1015.97,162.345 998.029,162.345ZM998.029,64C961.651,64 932.177,93.474 932.177,129.853C932.177,166.189 961.651,195.664 998.029,195.664C1034.37,195.664 1063.84,166.189 1063.84,129.853C1063.84,93.474 1034.37,64 998.029,64Z" style="fill:rgb(77,76,77);fill-rule:nonzero;"></path>
                    </g>
                    <g transform="matrix(1,0,0,1,-142.362,0)">
                        <path d="M1142.35,162.345C1124.37,162.345 1109.82,147.794 1109.82,129.853C1109.82,111.87 1124.37,97.319 1142.35,97.319C1160.29,97.319 1174.84,111.87 1174.84,129.853C1174.84,147.794 1160.29,162.345 1142.35,162.345ZM1142.35,64C1105.97,64 1076.5,93.474 1076.5,129.853C1076.5,166.189 1105.97,195.664 1142.35,195.664C1178.69,195.664 1208.16,166.189 1208.16,129.853C1208.16,93.474 1178.69,64 1142.35,64Z" style="fill:rgb(77,76,77);fill-rule:nonzero;"></path>
                    </g>
                    <g transform="matrix(1,0,0,1,-142.362,0)">
                        <path d="M1403.17,65.695C1399.58,64.744 1395.77,64.248 1391.89,64.248L1224.8,64.248L1224.8,195.54L1258.28,195.54L1258.28,108.77C1258.28,108.274 1258.28,107.819 1258.32,107.323L1258.32,97.485L1302.8,97.485C1308.26,97.485 1312.81,101.329 1313.88,106.455L1313.88,195.54L1347.37,195.54L1347.37,97.485L1391.89,97.485C1398.13,97.485 1403.17,102.527 1403.17,108.77L1403.17,195.54L1436.41,195.54L1436.41,108.77C1436.41,88.059 1422.27,70.656 1403.17,65.695Z" style="fill:rgb(77,76,77);fill-rule:nonzero;"></path>
                    </g>
                </g>
                <g transform="matrix(17.6099,0,0,15.8581,-6578.7,-13325.8)">
                    <path d="M404.815,848.39C404.815,849.222 404.637,849.96 404.281,850.604C403.925,851.248 403.413,851.75 402.745,852.11C402.077,852.47 401.291,852.65 400.387,852.65L397.183,852.65L397.183,844.166L400.387,844.166C401.299,844.166 402.087,844.342 402.751,844.694C403.415,845.046 403.925,845.542 404.281,846.182C404.637,846.822 404.815,847.558 404.815,848.39ZM400.207,850.814C401.007,850.814 401.629,850.602 402.073,850.178C402.517,849.754 402.739,849.158 402.739,848.39C402.739,847.622 402.517,847.026 402.073,846.602C401.629,846.178 401.007,845.966 400.207,845.966L399.235,845.966L399.235,850.814L400.207,850.814Z" style="fill:rgb(77,76,77);fill-rule:nonzero;"></path>
                </g>
                <g transform="matrix(17.6099,0,0,15.8581,-6578.7,-13325.8)">
                    <rect x="405.979" y="844.166" width="2.052" height="8.484" style="fill:rgb(77,76,77);fill-rule:nonzero;"></rect>
                </g>
                <g transform="matrix(17.6099,0,0,15.8581,-6578.7,-13325.8)">
                    <path d="M417.079,848.39C417.079,849.222 416.901,849.96 416.545,850.604C416.189,851.248 415.677,851.75 415.009,852.11C414.341,852.47 413.555,852.65 412.651,852.65L409.447,852.65L409.447,844.166L412.651,844.166C413.563,844.166 414.351,844.342 415.015,844.694C415.679,845.046 416.189,845.542 416.545,846.182C416.901,846.822 417.079,847.558 417.079,848.39ZM412.471,850.814C413.271,850.814 413.893,850.602 414.337,850.178C414.781,849.754 415.003,849.158 415.003,848.39C415.003,847.622 414.781,847.026 414.337,846.602C413.893,846.178 413.271,845.966 412.471,845.966L411.499,845.966L411.499,850.814L412.471,850.814Z" style="fill:rgb(77,76,77);fill-rule:nonzero;"></path>
                </g>
                <g transform="matrix(1.21951,0,0,1.0982,-118.725,-767.673)">
                    <g transform="matrix(0.962198,0,0,1,-1623.44,-1809.49)">
                        <path d="M1849.56,2581.65L1849.56,2554.98L1953.34,2555.49L1953.34,2599.57C1953.26,2599.4 1953.17,2599.22 1953.08,2599.05C1945.75,2584.94 1935.3,2574.3 1923.01,2567.95C1911.47,2561.98 1898.31,2559.8 1884.59,2562.07C1878.41,2563.09 1872.63,2565.08 1867.2,2567.95C1860.83,2571.33 1854.96,2575.93 1849.56,2581.65ZM1953.34,2655.72L1953.34,2703.91L1919.69,2703.91C1919.8,2703.79 1919.9,2703.64 1920.02,2703.57C1922.24,2702.3 1923.16,2700.11 1923.07,2697.34C1922.98,2694.57 1921.58,2692.91 1919.43,2692.03C1918.94,2691.83 1918.44,2691.66 1917.95,2691.48C1913.57,2689.83 1909.38,2687.71 1905.42,2685.05C1905.39,2685.03 1905.36,2685.01 1905.33,2684.99C1903.68,2683.88 1902.06,2682.67 1900.49,2681.36C1886.92,2670.1 1879.59,2654.97 1879.6,2635.22C1879.6,2632.24 1880.12,2629.43 1881.46,2626.87C1884.95,2620.2 1892.25,2616.9 1898.95,2618.99C1904,2620.57 1909.98,2625.96 1909.84,2635.54C1909.76,2641.42 1911.46,2646.75 1914.56,2651.42C1921.84,2662.42 1935,2666.63 1945.88,2661.08C1948.69,2659.64 1951.21,2657.86 1953.34,2655.72ZM1917.2,2703.91L1849.56,2703.91L1849.56,2646.93C1850.4,2654.71 1852.29,2662.32 1855.21,2669.69C1857.35,2675.11 1859.91,2680.18 1862.81,2684.99L1862.82,2685.01C1865.96,2690.23 1869.5,2695.14 1873.29,2699.82C1875.54,2702.6 1878.44,2702.83 1880.85,2700.29C1883.16,2697.84 1883.25,2694.44 1881.05,2691.57C1879.67,2689.76 1878.23,2688 1876.86,2686.18C1876.57,2685.8 1876.28,2685.41 1876,2685.02L1875.97,2684.99C1865.74,2671.02 1859.19,2655.35 1859.76,2638.18C1859.5,2629.47 1860.41,2622.95 1863.36,2617.1C1869.77,2604.4 1879.26,2597.23 1891.85,2596.12C1904.92,2594.97 1915.7,2600.37 1924.03,2612.25C1928.67,2618.86 1930.51,2626.64 1930.57,2635.12C1930.59,2638.64 1932.95,2641.02 1936.15,2640.96C1938.91,2640.9 1941.09,2638.42 1941.1,2635.15C1941.12,2626.16 1939.48,2617.62 1935.41,2609.93C1921.03,2582.72 1892.63,2577.75 1873.02,2589.92C1860.18,2597.88 1851.59,2610.08 1849.63,2627.37C1849.61,2627.6 1849.58,2627.82 1849.56,2628.05L1849.56,2598.84C1849.82,2598.47 1850.09,2598.09 1850.36,2597.72C1866.18,2575.96 1892.22,2567.86 1915.64,2578.36C1933.83,2586.51 1946.29,2601.27 1949.97,2624.58C1950.52,2628.09 1950.68,2631.72 1950.66,2635.29C1950.63,2642.04 1946.68,2647.93 1940.95,2650.23C1934.72,2652.74 1927.59,2650.35 1923.37,2644.4C1921.24,2641.39 1920.48,2637.91 1920.43,2634.09C1920.35,2627.93 1918.7,2622.4 1915.39,2617.59C1907.43,2606.01 1893.17,2602.67 1882.13,2609.99C1874.67,2614.93 1869.95,2622.32 1869.44,2632.56C1868.87,2643.9 1870.6,2654.87 1874.91,2665.11C1878.18,2672.86 1882.37,2679.45 1887.38,2684.99L1887.41,2685.03C1893.05,2691.26 1899.73,2696.15 1907.3,2699.86C1910.52,2701.43 1913.9,2702.57 1917.2,2703.91ZM1934.7,2684.99L1936.03,2684.99C1938.09,2684.6 1941.24,2684.13 1944.32,2683.32C1947.01,2682.62 1948.33,2679.99 1947.94,2676.86C1947.58,2673.98 1945.37,2671.73 1942.82,2671.8C1941.43,2671.85 1940.05,2672.15 1938.66,2672.33C1925.49,2674.05 1914.65,2668.83 1906.17,2656.98C1901.57,2650.56 1899.96,2642.86 1899.83,2634.61C1899.78,2630.92 1897.59,2628.54 1894.58,2628.62C1891.66,2628.7 1889.58,2631.17 1889.55,2634.72C1889.47,2642.76 1890.69,2650.53 1894.1,2657.53C1902.84,2675.48 1916.32,2684 1934.7,2684.99Z" style="fill:rgb(140,0,242);"></path>
                    </g>
                    <g transform="matrix(1,0,0,1,-1693.36,-1809.49)">
                        <path d="M1949.42,2508.57L2008.25,2567.95L1920.24,2567.95C1909.13,2561.98 1896.46,2559.8 1883.26,2562.07C1877.32,2563.09 1871.75,2565.08 1866.54,2567.95L1790.72,2567.95L1849.4,2508.57L1949.42,2508.57Z" style="fill:url(#_Linear2);"></path>
                    </g>
                    <g transform="matrix(-1,0,0,1,1966.75,-1809.49)">
                        <path d="M1869.4,2508.57L1810.55,2508.57L1810.55,2581.65L1810.56,2581.65C1810.82,2581.95 1811.09,2582.24 1811.35,2582.54C1819.95,2592.28 1826.15,2603.83 1828.87,2617.88C1832.42,2636.21 1829.95,2653.97 1825.15,2671.46C1824.36,2674.35 1821.91,2675.84 1819.51,2675.24C1816.16,2674.41 1814.45,2670.96 1815.63,2667.05C1818.59,2657.22 1820.38,2647.11 1820.64,2636.63C1821,2622.5 1817.85,2609.81 1810.56,2598.85L1810.55,2598.84L1810.55,2628.05C1810.56,2628.08 1810.56,2628.1 1810.56,2628.12C1811.2,2634.44 1811.2,2640.69 1810.56,2646.84C1810.56,2646.87 1810.56,2646.9 1810.55,2646.93L1810.55,2744.37L1869.4,2684.99L1869.4,2508.57Z" style="fill:url(#_Linear3);"></path>
                    </g>
                    <g transform="matrix(-1,-1.22465e-16,1.22465e-16,-1,2105.6,3443.45)">
                        <path d="M1790.72,2567.95L1849.4,2508.57L2008.25,2508.57L2008.25,2567.95L1949.42,2567.95L1949.41,2567.95L1936.66,2567.95L1936.65,2567.93C1933.62,2562.71 1930.22,2557.8 1926.58,2553.12C1924.41,2550.34 1921.62,2550.11 1919.3,2552.65C1917.07,2555.1 1916.99,2558.5 1919.1,2561.37C1920.44,2563.18 1921.82,2564.94 1923.14,2566.76C1923.42,2567.14 1923.69,2567.53 1923.97,2567.92L1923.99,2567.95L1913.02,2567.95L1912.98,2567.91C1907.56,2561.68 1901.13,2556.79 1893.85,2553.09C1890.75,2551.51 1887.5,2550.37 1884.32,2549.03L1881.93,2549.03C1881.82,2549.15 1881.73,2549.3 1881.61,2549.37C1879.47,2550.64 1878.59,2552.84 1878.67,2555.6C1878.76,2558.37 1880.11,2560.03 1882.18,2560.91C1882.65,2561.11 1883.13,2561.28 1883.6,2561.46C1887.82,2563.11 1891.84,2565.23 1895.65,2567.89C1895.68,2567.91 1895.71,2567.93 1895.74,2567.95L1790.72,2567.95Z" style="fill:url(#_Linear4);"></path>
                    </g>
                    <g transform="matrix(0.755425,-9.25129e-17,9.25129e-17,0.755425,-1041.34,-1314.71)">
                        <path d="M1717.44,2665.77L1717.44,2744.37L1697.99,2744.37L1717.44,2665.77Z" style="fill:rgb(98,0,169);"></path>
                    </g>
                    <g transform="matrix(0.755425,1.85026e-16,1.85026e-16,-0.755425,-1041.34,2948.66)">
                        <path d="M1717.44,2665.77L1717.44,2744.37L1697.99,2744.37L1717.44,2665.77Z" style="fill:rgb(98,0,169);"></path>
                    </g>
                    <g transform="matrix(0.399442,9.86076e-32,0,0.486595,239.151,819.047)">
                        <path d="M0.612,116.011C0.404,116.044 0.199,116.078 0,116.111C-0.864,116.083 -1.724,116.05 -2.579,116.011L0.612,116.011Z" style="fill:white;fill-rule:nonzero;"></path>
                    </g>
                    <g transform="matrix(0.399442,9.24446e-32,0,0.486595,221.285,747.885)">
                        <path d="M87.056,86.698C101.569,111.01 107.695,137.825 105.331,166.022C104.047,181.344 97.425,193.239 87.056,202.106L87.056,86.698Z" style="fill:white;fill-rule:nonzero;"></path>
                    </g>
                    <g transform="matrix(1,0,0,1,-1554.51,-1809.49)">
                        <path d="M1810.57,2508.57L1869.4,2567.95L1869.4,2684.99L1810.57,2744.37L1810.57,2508.57Z" style="fill:url(#_Linear5);"></path>
                    </g>
                    <g transform="matrix(-1,-1.22465e-16,1.22465e-16,-1,1946.9,3266.98)">
                        <path d="M1849.55,2508.57L1849.55,2567.95L1790.72,2567.95L1849.55,2508.57Z" style="fill:rgb(162,35,255);"></path>
                    </g>
                    <g transform="matrix(-1,-1.22465e-16,1.22465e-16,-1,2105.6,3443.45)">
                        <path d="M1849.55,2508.57L1849.55,2567.95L1790.72,2567.95L1849.55,2508.57Z" style="fill:rgb(162,35,255);"></path>
                    </g>
                    <g transform="matrix(-1,1.22465e-16,1.22465e-16,1,2105.6,-1809.49)">
                        <path d="M1849.55,2508.57L1849.55,2567.95L1790.72,2567.95L1849.55,2508.57Z" style="fill:rgb(162,35,255);"></path>
                    </g>
                    <g transform="matrix(1,0,0,1,-2067.95,-1809.49)">
                        <rect x="2324.01" y="2567.95" width="58.83" height="117.042" style="fill:none;"></rect>
                    </g>
                    <g transform="matrix(1,0,0,1,-2067.95,-1809.49)">
                        <path d="M2165.31,2684.99L2165.31,2567.95L2224.15,2567.95L2224.15,2581.65C2223.89,2581.95 2223.62,2582.24 2223.36,2582.54C2214.76,2592.28 2208.56,2603.83 2205.84,2617.88C2202.29,2636.21 2204.75,2653.97 2209.55,2671.46C2210.35,2674.35 2212.79,2675.84 2215.2,2675.24C2218.54,2674.41 2220.25,2670.96 2219.08,2667.05C2216.12,2657.22 2214.33,2647.11 2214.07,2636.63C2213.71,2622.5 2216.85,2609.81 2224.15,2598.85L2224.15,2628.12C2223.51,2634.44 2223.51,2640.69 2224.14,2646.84L2224.14,2684.99L2224.14,2685.11L2165.31,2684.99Z" style="fill:none;"></path>
                    </g>
                    <g transform="matrix(1,0,0,1,-2067.95,-1809.49)">
                        <path d="M2324.01,2744.37L2224.14,2744.37L2224.14,2685.11L2224.14,2684.99L2224.15,2684.99L2236.91,2685.01C2239.94,2690.23 2243.33,2695.14 2246.98,2699.82C2249.15,2702.6 2251.94,2702.83 2254.26,2700.29C2256.49,2697.84 2256.57,2694.44 2254.45,2691.57C2253.12,2689.76 2251.74,2688 2250.42,2686.18C2250.14,2685.8 2249.86,2685.41 2249.59,2685.02L2260.58,2685.03C2266,2691.26 2272.42,2696.15 2279.71,2699.86C2282.81,2701.43 2286.06,2702.57 2289.24,2703.91L2291.63,2703.91C2291.74,2703.79 2291.83,2703.64 2291.95,2703.57C2294.09,2702.3 2294.97,2700.11 2294.88,2697.34C2294.8,2694.57 2293.45,2692.91 2291.38,2692.03C2290.91,2691.83 2290.43,2691.67 2289.96,2691.48C2285.74,2689.83 2281.72,2687.71 2277.91,2685.05L2324.01,2685.11L2324.01,2744.37Z" style="fill:none;"></path>
                    </g>
                </g>
            </g>
        </g>
    </g>
    <defs>
        <linearGradient id="_Linear2" x1="0" y1="0" x2="1" y2="0" gradientUnits="userSpaceOnUse" gradientTransform="matrix(217.534,0,0,59.3759,1790.72,2538.26)"><stop offset="0" style="stop-color:rgb(148,0,255);stop-opacity:1"></stop><stop offset="1" style="stop-color:rgb(198,125,255);stop-opacity:1"></stop></linearGradient>
        <linearGradient id="_Linear3" x1="0" y1="0" x2="1" y2="0" gradientUnits="userSpaceOnUse" gradientTransform="matrix(78.6816,0.746021,-0.746021,78.6816,1790.72,2637.23)"><stop offset="0" style="stop-color:rgb(148,0,255);stop-opacity:1"></stop><stop offset="1" style="stop-color:rgb(198,125,255);stop-opacity:1"></stop></linearGradient>
        <linearGradient id="_Linear4" x1="0" y1="0" x2="1" y2="0" gradientUnits="userSpaceOnUse" gradientTransform="matrix(217.534,0,0,59.3759,1790.72,2538.26)"><stop offset="0" style="stop-color:rgb(148,0,255);stop-opacity:1"></stop><stop offset="1" style="stop-color:rgb(198,125,255);stop-opacity:1"></stop></linearGradient>
        <linearGradient id="_Linear5" x1="0" y1="0" x2="1" y2="0" gradientUnits="userSpaceOnUse" gradientTransform="matrix(78.6816,0.307496,-0.307496,78.6816,1790.72,2631.08)"><stop offset="0" style="stop-color:rgb(148,0,255);stop-opacity:1"></stop><stop offset="1" style="stop-color:rgb(198,125,255);stop-opacity:1"></stop></linearGradient>
    </defs>
</svg>
